<svg width="189" height="37" viewBox="0 0 189 37" fill="none" xmlns="http://www.w3.org/2000/svg">
<path d="M11.336 22.944C11.336 21.152 11.304 19.952 11.24 19.344C11.208 18.736 11.112 18.352 10.952 18.192C10.792 18.032 10.488 17.952 10.04 17.952C9.56 17.952 9.24 18.048 9.08 18.24C8.92 18.432 8.808 18.864 8.744 19.536C8.712 20.208 8.696 21.568 8.696 23.616V36H0.68V0.335999H8.696V14.256H9.128C9.992 12.176 11.656 11.136 14.12 11.136C15.592 11.136 16.696 11.44 17.432 12.048C18.2 12.656 18.712 13.568 18.968 14.784C19.224 15.968 19.352 17.632 19.352 19.776V36H11.336V22.944ZM31.5935 36.384C28.6495 36.384 26.5215 36.032 25.2095 35.328C23.8975 34.592 23.0495 33.408 22.6655 31.776C22.3135 30.112 22.1375 27.44 22.1375 23.76C22.1375 20.08 22.3135 17.424 22.6655 15.792C23.0495 14.128 23.8975 12.944 25.2095 12.24C26.5215 11.504 28.6495 11.136 31.5935 11.136C34.5375 11.136 36.6495 11.504 37.9295 12.24C39.2415 12.944 40.0895 14.128 40.4735 15.792C40.8575 17.456 41.0495 20.112 41.0495 23.76C41.0495 27.408 40.8575 30.064 40.4735 31.728C40.0895 33.392 39.2415 34.592 37.9295 35.328C36.6495 36.032 34.5375 36.384 31.5935 36.384ZM31.5935 30.096C32.1055 30.096 32.4415 29.984 32.6015 29.76C32.7935 29.536 32.9055 29.04 32.9375 28.272C33.0015 27.472 33.0335 25.968 33.0335 23.76C33.0335 21.552 33.0015 20.064 32.9375 19.296C32.9055 18.496 32.7935 17.984 32.6015 17.76C32.4415 17.536 32.1055 17.424 31.5935 17.424C31.0815 17.424 30.7295 17.536 30.5375 17.76C30.3455 17.984 30.2175 18.496 30.1535 19.296C30.1215 20.064 30.1055 21.552 30.1055 23.76C30.1055 25.968 30.1215 27.472 30.1535 28.272C30.2175 29.04 30.3455 29.536 30.5375 29.76C30.7295 29.984 31.0815 30.096 31.5935 30.096ZM54.5547 33.264H54.1228C53.2588 35.344 51.5628 36.384 49.0348 36.384C47.5628 36.384 46.4428 36.08 45.6748 35.472C44.9388 34.864 44.4428 33.968 44.1868 32.784C43.9308 31.568 43.8027 29.888 43.8027 27.744V11.52H51.8188V24.576C51.8188 26.368 51.8348 27.568 51.8668 28.176C51.9308 28.784 52.0428 29.168 52.2028 29.328C52.3628 29.488 52.6828 29.568 53.1628 29.568C53.6428 29.568 53.9628 29.472 54.1228 29.28C54.2828 29.088 54.3788 28.656 54.4108 27.984C54.4428 27.312 54.4588 25.952 54.4588 23.904V11.52H62.4748V36H54.7468L54.5547 33.264ZM73.3723 36.384C72.1243 36.384 70.7483 36.304 69.2443 36.144C67.7723 35.984 66.5403 35.792 65.5483 35.568V29.904C67.6603 30.096 69.3083 30.192 70.4922 30.192C71.5483 30.192 72.2843 30.176 72.7003 30.144C73.1163 30.08 73.4043 29.936 73.5643 29.712C73.7563 29.488 73.8523 29.12 73.8523 28.608C73.8523 27.936 73.7563 27.52 73.5643 27.36C73.4043 27.168 72.9243 26.992 72.1243 26.832L68.1883 26.208C67.0043 25.984 66.1723 25.296 65.6923 24.144C65.2123 22.992 64.9723 21.168 64.9723 18.672C64.9723 15.92 65.6923 13.984 67.1323 12.864C68.5723 11.712 70.6683 11.136 73.4203 11.136C74.5723 11.136 75.8043 11.216 77.1163 11.376C78.4283 11.504 79.4843 11.68 80.2843 11.904V17.664C78.1403 17.44 76.5563 17.328 75.5323 17.328C74.6363 17.328 73.9963 17.36 73.6123 17.424C73.2283 17.488 72.9723 17.616 72.8443 17.808C72.7483 18 72.7003 18.288 72.7003 18.672C72.7003 19.184 72.7163 19.536 72.7483 19.728C72.8123 19.888 72.9243 20.016 73.0843 20.112C73.2443 20.176 73.5803 20.256 74.0923 20.352L77.2603 20.928C78.1243 21.056 78.8443 21.312 79.4203 21.696C79.9963 22.048 80.4763 22.736 80.8603 23.76C81.2443 24.784 81.4363 26.24 81.4363 28.128C81.4363 30.336 81.1163 32.048 80.4763 33.264C79.8363 34.448 78.9243 35.264 77.7403 35.712C76.5883 36.16 75.1323 36.384 73.3723 36.384ZM101.643 25.776H91.3231C91.3231 27.28 91.3871 28.304 91.5151 28.848C91.6431 29.36 91.9471 29.696 92.4271 29.856C92.9391 30.016 93.8671 30.096 95.2111 30.096C96.4911 30.096 98.4431 30.032 101.067 29.904V35.616C100.203 35.84 99.0351 36.016 97.5631 36.144C96.1231 36.304 94.6991 36.384 93.2911 36.384C90.1871 36.384 87.9311 35.952 86.5231 35.088C85.1471 34.224 84.2831 32.976 83.9311 31.344C83.5791 29.68 83.4031 27.168 83.4031 23.808C83.4031 20.48 83.5791 17.984 83.9311 16.32C84.2831 14.624 85.1151 13.344 86.4271 12.48C87.7711 11.584 89.8831 11.136 92.7631 11.136C95.6431 11.136 97.7071 11.536 98.9551 12.336C100.203 13.136 100.955 14.336 101.211 15.936C101.499 17.504 101.643 20.128 101.643 23.808V25.776ZM92.7631 17.184C92.3151 17.184 91.9951 17.264 91.8031 17.424C91.6111 17.552 91.4831 17.904 91.4191 18.48C91.3551 19.024 91.3231 19.984 91.3231 21.36H94.2031C94.2031 19.92 94.1711 18.944 94.1071 18.432C94.0751 17.888 93.9631 17.552 93.7711 17.424C93.6111 17.264 93.2751 17.184 92.7631 17.184ZM117.611 36.384C116.555 36.384 115.595 36.144 114.731 35.664C113.899 35.184 113.307 34.4 112.955 33.312H112.475L112.283 36H104.555V0.335999H112.571V14.016H113.003C113.419 13.024 114.011 12.304 114.779 11.856C115.547 11.376 116.491 11.136 117.611 11.136C119.115 11.136 120.283 11.536 121.115 12.336C121.979 13.104 122.587 14.4 122.939 16.224C123.291 18.016 123.467 20.544 123.467 23.808C123.467 27.168 123.275 29.744 122.891 31.536C122.507 33.328 121.899 34.592 121.067 35.328C120.235 36.032 119.083 36.384 117.611 36.384ZM114.011 29.616C114.555 29.616 114.907 29.536 115.067 29.376C115.227 29.184 115.323 28.736 115.355 28.032C115.419 27.328 115.451 25.904 115.451 23.76C115.451 21.616 115.419 20.192 115.355 19.488C115.323 18.784 115.227 18.352 115.067 18.192C114.907 18 114.555 17.904 114.011 17.904C113.595 17.904 113.291 17.968 113.099 18.096C112.939 18.192 112.811 18.448 112.715 18.864C112.619 19.376 112.571 21.008 112.571 23.76C112.571 26.352 112.619 27.936 112.715 28.512C112.779 28.992 112.907 29.296 113.099 29.424C113.291 29.552 113.595 29.616 114.011 29.616ZM135.328 36.384C132.384 36.384 130.256 36.032 128.944 35.328C127.632 34.592 126.784 33.408 126.4 31.776C126.048 30.112 125.872 27.44 125.872 23.76C125.872 20.08 126.048 17.424 126.4 15.792C126.784 14.128 127.632 12.944 128.944 12.24C130.256 11.504 132.384 11.136 135.328 11.136C138.272 11.136 140.384 11.504 141.664 12.24C142.976 12.944 143.824 14.128 144.208 15.792C144.592 17.456 144.784 20.112 144.784 23.76C144.784 27.408 144.592 30.064 144.208 31.728C143.824 33.392 142.976 34.592 141.664 35.328C140.384 36.032 138.272 36.384 135.328 36.384ZM135.328 30.096C135.84 30.096 136.176 29.984 136.336 29.76C136.528 29.536 136.64 29.04 136.672 28.272C136.736 27.472 136.768 25.968 136.768 23.76C136.768 21.552 136.736 20.064 136.672 19.296C136.64 18.496 136.528 17.984 136.336 17.76C136.176 17.536 135.84 17.424 135.328 17.424C134.816 17.424 134.464 17.536 134.272 17.76C134.08 17.984 133.952 18.496 133.888 19.296C133.856 20.064 133.84 21.552 133.84 23.76C133.84 25.968 133.856 27.472 133.888 28.272C133.952 29.04 134.08 29.536 134.272 29.76C134.464 29.984 134.816 30.096 135.328 30.096ZM156.609 36.384C153.665 36.384 151.537 36.032 150.225 35.328C148.913 34.592 148.065 33.408 147.681 31.776C147.329 30.112 147.153 27.44 147.153 23.76C147.153 20.08 147.329 17.424 147.681 15.792C148.065 14.128 148.913 12.944 150.225 12.24C151.537 11.504 153.665 11.136 156.609 11.136C159.553 11.136 161.665 11.504 162.945 12.24C164.257 12.944 165.105 14.128 165.489 15.792C165.873 17.456 166.065 20.112 166.065 23.76C166.065 27.408 165.873 30.064 165.489 31.728C165.105 33.392 164.257 34.592 162.945 35.328C161.665 36.032 159.553 36.384 156.609 36.384ZM156.609 30.096C157.121 30.096 157.457 29.984 157.617 29.76C157.809 29.536 157.921 29.04 157.953 28.272C158.017 27.472 158.049 25.968 158.049 23.76C158.049 21.552 158.017 20.064 157.953 19.296C157.921 18.496 157.809 17.984 157.617 17.76C157.457 17.536 157.121 17.424 156.609 17.424C156.097 17.424 155.745 17.536 155.553 17.76C155.361 17.984 155.233 18.496 155.169 19.296C155.137 20.064 155.121 21.552 155.121 23.76C155.121 25.968 155.137 27.472 155.169 28.272C155.233 29.04 155.361 29.536 155.553 29.76C155.745 29.984 156.097 30.096 156.609 30.096ZM180.578 36L177.506 27.072H176.93V36H168.914V0.335999H176.93V20.736H177.506L180.818 11.52H188.93L184.178 23.088L188.978 36H180.578Z" fill="#F1F1F1"/>
</svg>
